# xmcd CD database file generated by Grip 3.2.0
# 
# Track frame offsets:
#       300
#       27802
#       46605
#       64527
#       83423
#       116027
#       133413
#       155344
#       199586
#       221470
#       241096
#       262627
#       283692
# 
# Disc length: 4185 seconds
# 
# Revision: 4
# Processed by: cddbd v1.5.2PL0 Copyright (c) Steve Scherf et al.
# Submitted via: Grip 3.2.0
# 
DISCID=a410550d
DTITLE=Roy Ayers - Virgin Ubiquity (Unreleased Recordings 1976-1981)
DYEAR=2003
DGENRE=Jazz+Funk
TTITLE0=Boogie Down
TTITLE1=What's The T?
TTITLE2=I Really Love You
TTITLE3=Oh What A Lonely Feeling
TTITLE4=Sugar
TTITLE5=Mystery Of Love
TTITLE6=Green And Gold
TTITLE7=Brand New Feeling
TTITLE8=I Did It In Seattle
TTITLE9=Mystic Voyage (Version)
TTITLE10=I Just Wanna Give It Up
TTITLE11=Together Forever
TTITLE12=I Am Your Mind
EXTD=
EXTT0=
EXTT1=
EXTT2=
EXTT3=
EXTT4=
EXTT5=
EXTT6=
EXTT7=
EXTT8=
EXTT9=
EXTT10=
EXTT11=
EXTT12=
PLAYORDER=
